
<svg version="1.0" xmlns="http://www.w3.org/2000/svg"
 width="100.000000pt" height="100.000000pt" viewBox="0 0 100.000000 100.000000"
 preserveAspectRatio="xMidYMid meet">
<metadata>
Created by potrace 1.14, written by Peter Selinger 2001-2017
</metadata>
<g transform="translate(0.000000,100.000000) scale(0.100000,-0.100000)"
fill="#000000" stroke="none">
<path d="M411 984 c-215 -58 -365 -248 -370 -469 -6 -244 137 -440 364 -499
57 -15 237 -17 290 -3 82 22 216 89 249 126 17 19 23 88 17 194 -1 16 -11 17
-103 15 l-102 -3 -1 -47 c-1 -26 -3 -49 -6 -51 -31 -25 -109 -47 -175 -51
-184 -10 -318 132 -308 326 9 155 132 278 279 278 78 0 127 -14 193 -56 29
-19 57 -32 61 -30 4 3 35 39 69 80 l62 74 -48 34 c-101 72 -160 90 -302 94
-78 2 -132 -2 -169 -12z"/>
<path d="M540 483 l0 -93 53 -1 c180 -1 360 1 365 5 4 5 6 116 3 166 -1 13
-31 15 -211 15 l-210 0 0 -92z"/>
</g>
</svg>
